<svg width="1255" height="1000" viewBox="0 0 1255 1000" fill="none" xmlns="http://www.w3.org/2000/svg">
<g clip-path="url(#clip0)">
<path d="M740.041 659.485C749.855 666.615 763.144 666.615 772.957 659.485L955.827 526.623C965.64 519.493 969.747 506.854 965.998 495.318L896.148 280.342C892.4 268.805 881.649 260.995 869.519 260.995H643.48C631.35 260.995 620.599 268.805 616.85 280.342L547.001 495.318C543.252 506.854 547.358 519.493 557.172 526.623L740.041 659.485Z" stroke="url(#paint0_linear)" stroke-width="28.2876"/>
<path opacity="0.3" d="M1303.12 478.153C1315.25 478.092 1325.96 470.226 1329.65 458.671L1398.41 243.343C1402.1 231.788 1397.93 219.171 1388.08 212.09L1204.54 80.1579C1194.69 73.0778 1181.4 73.1452 1171.62 80.325L989.431 214.114C979.654 221.293 975.612 233.952 979.419 245.47L1050.36 460.088C1054.17 471.606 1064.96 479.362 1077.09 479.3L1303.12 478.153Z" stroke="url(#paint1_linear)" stroke-width="28.2876"/>
<path opacity="0.3" d="M1267.57 419.804C1275.36 419.764 1282.25 414.708 1284.62 407.279L1331.93 259.127C1334.3 251.698 1331.62 243.587 1325.29 239.036L1199.01 148.262C1192.68 143.71 1184.13 143.754 1177.85 148.369L1052.49 240.42C1046.21 245.036 1043.61 253.174 1046.06 260.578L1094.86 408.242C1097.31 415.646 1104.25 420.633 1112.05 420.593L1267.57 419.804Z" stroke="url(#paint2_linear)" stroke-width="3"/>
<path opacity="0.3" d="M203.222 490.153C191.092 490.092 180.381 482.226 176.691 470.671L107.933 255.343C104.243 243.788 108.414 231.171 118.263 224.09L301.804 92.1579C311.654 85.0778 324.943 85.1452 334.72 92.325L516.913 226.114C526.69 233.293 530.732 245.952 526.925 257.47L455.985 472.088C452.178 483.606 441.388 491.362 429.258 491.3L203.222 490.153Z" stroke="url(#paint3_linear)" stroke-width="28.2876"/>
<path opacity="0.3" d="M234.229 437.996C226.431 437.956 219.546 432.9 217.174 425.471L167.119 268.716C164.747 261.287 167.428 253.176 173.76 248.625L307.375 152.58C313.707 148.028 322.25 148.072 328.535 152.687L461.169 250.083C467.454 254.699 470.053 262.837 467.606 270.241L415.962 426.48C413.515 433.884 406.578 438.871 398.78 438.831L234.229 437.996Z" stroke="url(#paint4_linear)" stroke-width="3"/>
<path opacity="0.3" d="M1147.12 996.153C1159.25 996.092 1169.96 988.226 1173.65 976.671L1242.41 761.343C1246.1 749.788 1241.93 737.171 1232.08 730.09L1048.54 598.158C1038.69 591.078 1025.4 591.145 1015.62 598.325L833.431 732.114C823.654 739.293 819.612 751.952 823.419 763.47L894.358 978.088C898.165 989.606 908.956 997.362 921.086 997.3L1147.12 996.153Z" stroke="url(#paint5_linear)" stroke-width="28.2876"/>
<path opacity="0.3" d="M1112.15 938.598C1119.95 938.558 1126.83 933.502 1129.21 926.073L1176.87 776.818C1179.24 769.389 1176.56 761.278 1170.23 756.726L1043 665.276C1036.67 660.725 1028.13 660.768 1021.84 665.384L895.554 758.12C889.268 762.736 886.67 770.874 889.117 778.278L938.29 927.042C940.737 934.446 947.674 939.433 955.472 939.393L1112.15 938.598Z" stroke="url(#paint6_linear)" stroke-width="3"/>
<path opacity="0.3" d="M371.222 1008.15C359.092 1008.09 348.381 1000.23 344.691 988.671L275.933 773.343C272.243 761.788 276.414 749.171 286.263 742.09L469.804 610.158C479.654 603.078 492.943 603.145 502.72 610.325L684.913 744.114C694.69 751.293 698.732 763.952 694.925 775.47L623.985 990.088C620.178 1001.61 609.388 1009.36 597.258 1009.3L371.222 1008.15Z" stroke="url(#paint7_linear)" stroke-width="28.2876"/>
<path opacity="0.3" d="M401.747 956.655C393.949 956.615 387.063 951.559 384.691 944.13L334.344 786.46C331.972 779.031 334.653 770.92 340.985 766.369L475.38 669.763C481.712 665.212 490.255 665.255 496.54 669.87L629.948 767.835C636.233 772.451 638.832 780.589 636.385 787.993L584.44 945.144C581.993 952.548 575.056 957.534 567.258 957.494L401.747 956.655Z" stroke="url(#paint8_linear)" stroke-width="3"/>
<path d="M756.499 671.442L972.285 514.665L889.862 260.995H623.137L540.714 514.665L756.499 671.442Z" stroke="url(#paint9_linear)" stroke-width="3"/>
<path opacity="0.7" d="M745.92 537.313C752.229 541.897 760.771 541.897 767.08 537.313L841.501 483.243C847.81 478.66 850.45 470.535 848.04 463.119L819.614 375.631C817.204 368.215 810.293 363.194 802.495 363.194H710.505C702.707 363.194 695.796 368.215 693.386 375.631L664.96 463.118C662.55 470.535 665.19 478.66 671.499 483.243L745.92 537.313Z" fill="url(#paint10_linear)"/>
<path d="M754.778 403.959C755.49 403.01 757 403.514 757 404.7V452.927H720.472C719.454 452.927 718.873 451.765 719.484 450.951L754.778 403.959Z" fill="white"/>
<path d="M759.222 482.041C758.51 482.99 757 482.486 757 481.3V433.073H793.528C794.546 433.073 795.127 434.235 794.516 435.049L759.222 482.041Z" fill="white"/>
<g filter="url(#filter0_d)">
<circle cx="632.153" cy="270.701" r="61.2898" fill="url(#paint11_linear)"/>
</g>
<g filter="url(#filter1_d)">
<circle cx="882.024" cy="270.701" r="61.2898" fill="url(#paint12_linear)"/>
</g>
<g filter="url(#filter2_d)">
<circle cx="965.29" cy="499.29" r="61.2898" fill="url(#paint13_linear)"/>
</g>
<g opacity="0.2" filter="url(#filter3_f)">
<path d="M981.596 475.543L977.222 470.978L976.622 473.509C971.877 473.234 977.194 484.006 972.527 489.496C967.597 495.296 954.274 494.414 955.734 499.091L953.138 499.458L958.606 503.097C963.423 506.399 971.974 503.436 978.145 496.176C984.433 488.779 985.921 479.663 981.596 475.543Z" fill="#FD7A17"/>
<path fill-rule="evenodd" clip-rule="evenodd" d="M972.194 479.561C969.733 479.951 966.854 481.692 964.511 484.449C962.035 487.362 960.774 490.682 960.938 493.235C959.452 493.471 958.119 493.213 957.148 492.388C954.571 490.197 955.53 484.837 959.289 480.415C963.048 475.992 968.185 474.183 970.761 476.374C971.641 477.121 972.109 478.238 972.194 479.561Z" fill="#FD7618"/>
<path fill-rule="evenodd" clip-rule="evenodd" d="M952.51 498.988C957.133 502.918 966.301 499.728 972.987 491.862C979.673 483.997 981.346 474.435 976.722 470.505C972.099 466.575 962.931 469.765 956.245 477.63C949.559 485.496 947.887 495.058 952.51 498.988ZM957.148 492.388C959.725 494.579 964.861 492.769 968.62 488.347C972.38 483.925 973.338 478.564 970.761 476.374C968.184 474.183 963.048 475.992 959.289 480.415C955.53 484.837 954.571 490.198 957.148 492.388Z" fill="#FD8714"/>
</g>
<path d="M981.447 475.687L981.447 475.687L981.454 475.693C983.548 477.689 984.257 480.917 983.646 484.597C983.036 488.273 981.111 492.367 977.988 496.042C974.922 499.648 971.271 502.18 967.799 503.402C964.323 504.625 961.057 504.526 958.723 502.926L958.721 502.925L953.705 499.587L955.763 499.296L956.004 499.262L955.932 499.029C955.764 498.491 955.812 498.052 956.017 497.672C956.226 497.284 956.61 496.936 957.154 496.612C958.248 495.963 959.902 495.46 961.792 494.913C961.935 494.872 962.08 494.83 962.226 494.788C963.989 494.28 965.913 493.725 967.698 492.975C969.631 492.163 971.422 491.115 972.685 489.63C973.887 488.216 974.439 486.47 974.674 484.67C974.909 482.872 974.829 481.001 974.752 479.331L974.749 479.262C974.673 477.606 974.608 476.174 974.839 475.165C974.954 474.658 975.14 474.286 975.412 474.047C975.679 473.813 976.056 473.684 976.61 473.716L976.783 473.726L976.823 473.557L977.335 471.396L981.447 475.687Z" fill="url(#paint14_linear)" stroke="#FD8813" stroke-width="0.413934"/>
<mask id="path-20-outside-1" maskUnits="userSpaceOnUse" x="952.556" y="470.962" width="22.146" height="25.8928" fill="black">
<rect fill="white" x="952.556" y="470.962" width="22.146" height="25.8928"/>
<path fill-rule="evenodd" clip-rule="evenodd" d="M972.194 479.561C969.733 479.951 966.854 481.692 964.511 484.449C962.035 487.362 960.774 490.682 960.938 493.235C959.452 493.471 958.119 493.213 957.148 492.388C954.571 490.197 955.53 484.837 959.289 480.415C963.048 475.992 968.185 474.183 970.761 476.374C971.641 477.121 972.109 478.238 972.194 479.561Z"/>
</mask>
<path fill-rule="evenodd" clip-rule="evenodd" d="M972.194 479.561C969.733 479.951 966.854 481.692 964.511 484.449C962.035 487.362 960.774 490.682 960.938 493.235C959.452 493.471 958.119 493.213 957.148 492.388C954.571 490.197 955.53 484.837 959.289 480.415C963.048 475.992 968.185 474.183 970.761 476.374C971.641 477.121 972.109 478.238 972.194 479.561Z" fill="url(#paint15_linear)"/>
<path d="M964.511 484.449L964.197 484.183L964.511 484.449ZM972.194 479.561L972.258 479.967L972.628 479.909L972.604 479.535L972.194 479.561ZM960.938 493.235L961.002 493.641L961.372 493.583L961.348 493.209L960.938 493.235ZM957.148 492.388L956.882 492.701L957.148 492.388ZM959.289 480.415L958.976 480.148L959.289 480.415ZM970.761 476.374L971.028 476.06L970.761 476.374ZM964.824 484.716C967.124 482.01 969.921 480.337 972.258 479.967L972.129 479.155C969.546 479.564 966.585 481.374 964.197 484.183L964.824 484.716ZM961.348 493.209C961.193 490.795 962.393 487.576 964.824 484.716L964.197 484.183C961.677 487.148 960.354 490.569 960.527 493.262L961.348 493.209ZM960.873 492.829C959.467 493.052 958.267 492.799 957.415 492.075L956.882 492.701C957.97 493.626 959.437 493.889 961.002 493.641L960.873 492.829ZM957.415 492.075C956.284 491.114 955.873 489.405 956.247 487.311C956.62 485.227 957.761 482.847 959.602 480.681L958.976 480.148C957.057 482.405 955.84 484.916 955.438 487.166C955.038 489.404 955.436 491.472 956.882 492.701L957.415 492.075ZM959.602 480.681C961.443 478.515 963.609 477.005 965.605 476.302C967.612 475.595 969.364 475.726 970.495 476.687L971.028 476.06C969.581 474.831 967.477 474.771 965.332 475.526C963.176 476.286 960.894 477.892 958.976 480.148L959.602 480.681ZM970.495 476.687C971.269 477.344 971.703 478.345 971.783 479.588L972.604 479.535C972.514 478.132 972.013 476.898 971.028 476.06L970.495 476.687Z" fill="#FD8813" mask="url(#path-20-outside-1)"/>
<mask id="path-22-inside-2" fill="white">
<path fill-rule="evenodd" clip-rule="evenodd" d="M952.51 498.988C957.133 502.918 966.301 499.728 972.987 491.862C979.673 483.997 981.346 474.435 976.722 470.505C972.099 466.575 962.931 469.765 956.245 477.63C949.559 485.496 947.887 495.058 952.51 498.988ZM957.148 492.388C959.725 494.579 964.861 492.769 968.62 488.347C972.38 483.925 973.338 478.564 970.761 476.374C968.184 474.183 963.048 475.992 959.289 480.415C955.53 484.837 954.571 490.198 957.148 492.388Z"/>
</mask>
<g filter="url(#filter4_ii)">
<path fill-rule="evenodd" clip-rule="evenodd" d="M952.51 498.988C957.133 502.918 966.301 499.728 972.987 491.862C979.673 483.997 981.346 474.435 976.722 470.505C972.099 466.575 962.931 469.765 956.245 477.63C949.559 485.496 947.887 495.058 952.51 498.988ZM957.148 492.388C959.725 494.579 964.861 492.769 968.62 488.347C972.38 483.925 973.338 478.564 970.761 476.374C968.184 474.183 963.048 475.992 959.289 480.415C955.53 484.837 954.571 490.198 957.148 492.388Z" fill="url(#paint16_linear)"/>
</g>
<path d="M972.987 491.862L973.303 492.13L972.987 491.862ZM952.51 498.988L952.242 499.303L952.242 499.303L952.51 498.988ZM976.722 470.505L976.99 470.189L976.99 470.189L976.722 470.505ZM956.245 477.63L955.929 477.362L956.245 477.63ZM957.148 492.388L956.88 492.703L957.148 492.388ZM970.761 476.374L970.493 476.689L970.761 476.374ZM972.672 491.594C969.368 495.481 965.464 498.196 961.839 499.457C958.204 500.722 954.932 500.504 952.778 498.672L952.242 499.303C954.711 501.402 958.335 501.553 962.111 500.239C965.898 498.922 969.921 496.109 973.303 492.13L972.672 491.594ZM976.454 470.82C978.608 472.651 979.351 475.845 978.688 479.636C978.027 483.417 975.976 487.708 972.672 491.594L973.303 492.13C976.685 488.152 978.813 483.729 979.504 479.779C980.192 475.841 979.46 472.288 976.99 470.189L976.454 470.82ZM956.56 477.898C959.864 474.012 963.768 471.296 967.393 470.035C971.028 468.77 974.3 468.989 976.454 470.82L976.99 470.189C974.521 468.09 970.897 467.939 967.121 469.253C963.334 470.571 959.312 473.383 955.929 477.362L956.56 477.898ZM952.778 498.672C950.624 496.841 949.881 493.647 950.544 489.856C951.205 486.076 953.256 481.785 956.56 477.898L955.929 477.362C952.547 481.341 950.419 485.764 949.729 489.713C949.04 493.652 949.773 497.204 952.242 499.303L952.778 498.672ZM968.305 488.079C966.464 490.244 964.299 491.754 962.303 492.457C960.297 493.164 958.546 493.033 957.416 492.073L956.88 492.703C958.327 493.934 960.433 493.994 962.578 493.238C964.735 492.478 967.017 490.872 968.936 488.615L968.305 488.079ZM970.493 476.689C971.623 477.649 972.034 479.356 971.659 481.451C971.287 483.533 970.146 485.914 968.305 488.079L968.936 488.615C970.854 486.358 972.072 483.847 972.474 481.596C972.875 479.357 972.477 477.289 971.029 476.058L970.493 476.689ZM959.604 480.683C961.445 478.517 963.61 477.008 965.606 476.305C967.613 475.598 969.364 475.729 970.493 476.689L971.029 476.058C969.582 474.828 967.476 474.768 965.331 475.524C963.174 476.284 960.892 477.89 958.973 480.147L959.604 480.683ZM957.416 492.073C956.287 491.113 955.875 489.406 956.25 487.311C956.622 485.228 957.763 482.848 959.604 480.683L958.973 480.147C957.055 482.403 955.837 484.915 955.435 487.165C955.035 489.405 955.433 491.473 956.88 492.703L957.416 492.073Z" fill="#FD8813" mask="url(#path-22-inside-2)"/>
<path d="M963.561 504.439L962.52 503.351L961.991 503.468L961.962 504.366C962.581 504.43 962.931 504.441 963.561 504.439Z" fill="#FD6C1A"/>
<g opacity="0.3" filter="url(#filter5_f)">
<path d="M962.566 496.555L957.268 492.995M975.274 480.08L970.762 475.982" stroke="#FD8414" stroke-width="0.413934"/>
</g>
<g opacity="0.5" filter="url(#filter6_f)">
<path d="M973.687 492.248C971.827 494.436 969.632 495.97 967.597 496.687C965.555 497.406 963.716 497.293 962.507 496.265C961.298 495.238 960.89 493.44 961.271 491.31C961.651 489.185 962.811 486.772 964.671 484.584C966.531 482.395 968.726 480.862 970.762 480.145C972.803 479.425 974.643 479.539 975.852 480.566C977.061 481.594 977.469 483.391 977.088 485.522C976.708 487.647 975.547 490.06 973.687 492.248Z" stroke="url(#paint17_linear)" stroke-width="0.413934"/>
</g>
<path d="M957.173 501.092C957.198 501.039 957.246 501.001 957.304 500.993C958.884 500.779 961.551 501.649 962.465 503.287C962.491 503.335 962.492 503.392 962.469 503.441L960.958 506.692L955.718 504.255L957.173 501.092Z" fill="url(#paint18_linear)"/>
<path opacity="0.5" d="M957.173 501.092C957.198 501.039 957.246 501.001 957.304 500.993C958.884 500.779 961.551 501.649 962.465 503.287C962.491 503.335 962.492 503.392 962.469 503.441L960.958 506.692L955.718 504.255L957.173 501.092Z" fill="url(#paint19_linear)"/>
<g filter="url(#filter7_i)">
<path d="M952.81 504.14C953.047 503.632 953.563 503.305 954.122 503.35C957.597 503.626 960.567 505.007 962.576 507.258C962.924 507.648 962.977 508.21 962.757 508.683L952.006 531.803L942.091 527.193L952.81 504.14Z" fill="url(#paint20_linear)"/>
</g>
<path opacity="0.5" d="M952.81 504.14C953.047 503.632 953.563 503.305 954.122 503.35C957.597 503.626 960.567 505.007 962.576 507.258C962.924 507.648 962.977 508.21 962.757 508.683L952.006 531.803L942.091 527.193L952.81 504.14Z" fill="url(#paint21_linear)"/>
<ellipse cx="947.057" cy="529.481" rx="5.46776" ry="0.912542" transform="rotate(24.9512 947.057 529.481)" fill="url(#paint22_linear)"/>
<g opacity="0.3" filter="url(#filter8_f)">
<path d="M952.929 498.025C957.737 502.112 967.273 498.794 974.226 490.614C981.18 482.434 982.919 472.489 978.111 468.401C973.302 464.314 963.767 467.631 956.813 475.812" stroke="url(#paint23_linear)" stroke-width="2.93628"/>
</g>
<g filter="url(#filter9_d)">
<circle cx="759.446" cy="657.299" r="61.2898" fill="url(#paint24_linear)"/>
</g>
<g filter="url(#filter10_d)">
<circle cx="547.29" cy="499.36" r="61.2898" fill="url(#paint25_linear)"/>
</g>
<path fill-rule="evenodd" clip-rule="evenodd" d="M658.336 251.105H607.63V291.871C607.63 291.894 607.629 291.917 607.629 291.94C607.629 291.963 607.63 291.986 607.63 292.009V292.239H607.64C608.037 297.682 619.231 302.045 632.982 302.045C646.733 302.045 657.927 297.682 658.324 292.239H658.336V251.105Z" fill="url(#paint26_linear)"/>
<path fill-rule="evenodd" clip-rule="evenodd" d="M658.336 251.105H607.63V291.871C607.63 291.894 607.629 291.917 607.629 291.94C607.629 291.963 607.63 291.986 607.63 292.009V292.239H607.64C608.037 297.682 619.231 302.045 632.982 302.045C646.733 302.045 657.927 297.682 658.324 292.239H658.336V251.105Z" fill="url(#paint27_radial)"/>
<ellipse cx="632.982" cy="251.105" rx="25.353" ry="10.1052" fill="url(#paint28_linear)"/>
<mask id="mask0" mask-type="alpha" maskUnits="userSpaceOnUse" x="607" y="251" width="52" height="52">
<path fill-rule="evenodd" clip-rule="evenodd" d="M658.336 251.105H607.63V291.871C607.63 291.894 607.629 291.917 607.629 291.94C607.629 291.963 607.63 291.986 607.63 292.009V292.239H607.64C608.037 297.682 619.231 302.045 632.982 302.045C646.733 302.045 657.927 297.682 658.324 292.239H658.336V251.105Z" fill="url(#paint29_linear)"/>
</mask>
<g mask="url(#mask0)">
<path d="M608.728 267.305L607.559 265.468L606.774 279.347L607.659 280.316L610.164 283.055L613.572 285.109L618.365 286.83L623.008 287.882L629.271 288.433H636.687L644.921 287.297L649.264 286.345L653.673 284.224L655.911 282.804L657.581 281.385L658.6 280.115L658.801 265.267L657.648 266.704L654.759 269.376L649.464 271.698C647.549 272.165 643.702 273.107 643.635 273.134C643.568 273.161 639.488 273.646 637.455 273.886L631.677 274.153L626.232 273.685L619.634 272.533L614.256 270.979L608.728 267.305Z" fill="url(#paint30_linear)"/>
<path d="M608.728 267.305L607.559 265.468L606.774 279.347L607.659 280.316L610.164 283.055L613.572 285.109L618.365 286.83L623.008 287.882L629.271 288.433H636.687L644.921 287.297L649.264 286.345L653.673 284.224L655.911 282.804L657.581 281.385L658.6 280.115L658.801 265.267L657.648 266.704L654.759 269.376L649.464 271.698C647.549 272.165 643.702 273.107 643.635 273.134C643.568 273.161 639.488 273.646 637.455 273.886L631.677 274.153L626.232 273.685L619.634 272.533L614.256 270.979L608.728 267.305Z" fill="url(#paint31_linear)"/>
<g filter="url(#filter11_f)">
<path d="M658.671 278.185C658.671 275.411 655.786 272.899 651.165 271.073M607.297 278.185C607.297 275.423 610.157 272.921 614.743 271.097" stroke="url(#paint32_linear)" stroke-width="0.938362"/>
</g>
<path d="M658.671 263.958C658.671 269.539 646.986 274.063 632.984 274.063C618.982 274.063 607.297 269.539 607.297 263.958" stroke="#3AC43F" stroke-width="0.938362"/>
<path d="M658.671 278.42C658.671 284.001 646.986 288.525 632.984 288.525C618.982 288.525 607.297 284.001 607.297 278.42" stroke="#3AC43F" stroke-width="0.938362"/>
</g>
<g opacity="0.6" filter="url(#filter12_f)">
<path d="M608.954 267.083L607.785 265.245L607 279.125L607.885 280.093L610.391 282.833L613.798 284.887L618.591 286.607L623.234 287.659L629.498 288.211H636.913L645.147 287.075L649.49 286.123L653.899 284.002L656.137 282.582L657.807 281.162L658.826 279.893L659.027 265.045L657.874 266.481L654.985 269.154L649.69 271.475C647.775 271.943 643.928 272.885 643.861 272.912C643.794 272.938 639.714 273.424 637.682 273.663L631.903 273.93L626.458 273.463L619.861 272.31L614.482 270.757L608.954 267.083Z" fill="url(#paint33_linear)"/>
</g>
<path opacity="0.3" d="M658.024 266.195L658.054 280.545" stroke="#3BC740" stroke-width="0.938362"/>
<g filter="url(#filter13_i)">
<path d="M631.745 244.329C632.211 243.878 632.99 244.209 632.99 244.858V252.99H624.586C623.925 252.99 623.6 252.185 624.076 251.726L631.745 244.329Z" fill="url(#paint34_linear)"/>
<path d="M634.235 257.881C633.768 258.331 632.99 258 632.99 257.352V249.219H641.394C642.055 249.219 642.38 250.024 641.904 250.483L634.235 257.881Z" fill="url(#paint35_linear)"/>
</g>
<path d="M881.486 270.069L910.78 256.582V289.69C910.78 290.599 910.257 291.427 909.437 291.819L882.614 304.628C882.174 304.802 881.927 304.834 881.486 304.828V270.069Z" fill="url(#paint36_linear)"/>
<path d="M881.482 270.208L853.004 256.666V289.616C853.004 290.514 853.514 291.335 854.319 291.732L880.154 304.483C880.643 304.731 880.932 304.816 881.482 304.83V270.208Z" fill="url(#paint37_linear)"/>
<path opacity="0.32" d="M890.27 273.592C890.27 273.413 890.371 273.249 890.531 273.169L904.787 266.084C905.101 265.928 905.469 266.156 905.469 266.507V267.128C905.469 267.307 905.367 267.471 905.207 267.551L890.952 274.636C890.638 274.792 890.27 274.564 890.27 274.214V273.592Z" fill="#C0CDDC"/>
<path opacity="0.32" d="M894.445 293.487C894.445 293.31 894.545 293.147 894.703 293.067L907.648 286.484C907.962 286.325 908.334 286.553 908.334 286.905V287.522C908.334 287.699 908.235 287.862 908.076 287.942L895.131 294.525C894.817 294.684 894.445 294.456 894.445 294.104V293.487Z" fill="#C0CDDC"/>
<ellipse opacity="0.4" rx="2.08657" ry="1.13531" transform="matrix(-0.474984 0.879994 0.879994 0.474984 887.32 275.361)" fill="#C0CDDC"/>
<ellipse opacity="0.4" rx="2.08657" ry="1.13531" transform="matrix(-0.474984 0.879994 0.879994 0.474984 887.324 297.546)" fill="#C0CDDC"/>
<ellipse opacity="0.4" rx="2.08657" ry="1.13531" transform="matrix(-0.474984 0.879994 0.879994 0.474984 891.31 295.705)" fill="#C0CDDC"/>
<g opacity="0.6" filter="url(#filter14_f)">
<path d="M852.822 280.213L852.539 268.543L853.715 269.087L868.455 276.533L877.774 281.149L881.366 282.76L883.696 281.89L893.145 277.339L903.553 272.288L909.649 269.109L911.26 268.151L911.021 280.126L892.035 289.445L884.523 293.19L881.628 294.409L880.757 294.235L860.29 284.154L852.822 280.213Z" fill="url(#paint38_linear)"/>
</g>
<mask id="mask1" mask-type="alpha" maskUnits="userSpaceOnUse" x="853" y="256" width="58" height="48">
<path d="M881.49 270.069L910.784 256.582V290.336L882.618 303.786C882.178 303.961 881.931 303.993 881.49 303.987V270.069Z" fill="url(#paint39_linear)"/>
<path d="M881.49 270.069L853.008 256.666V290.241L880.158 303.642C880.647 303.89 880.939 303.973 881.49 303.987V270.069Z" fill="url(#paint40_linear)"/>
</mask>
<g mask="url(#mask1)">
<path d="M852.822 280.213L852.539 268.543L853.715 269.087L868.455 276.533L877.774 281.149L881.366 282.76L883.696 281.89L893.145 277.339L903.553 272.288L909.649 269.109L911.26 268.151L911.021 280.126L892.035 289.445L884.523 293.19L881.628 294.409L880.757 294.235L860.29 284.154L852.822 280.213Z" fill="url(#paint41_linear)"/>
<path d="M852.742 279.47C852.756 280.015 853.287 280.543 853.854 280.827L880.157 294.001C881.038 294.442 882.074 294.447 882.959 294.013L909.868 280.833C910.443 280.551 911.053 280.008 911.067 279.458" stroke="#BA46DF" stroke-width="0.786633"/>
<g opacity="0.21" filter="url(#filter15_i)">
<ellipse rx="2.08657" ry="1.13531" transform="matrix(-0.474984 0.879994 0.879994 0.474984 888.285 286.487)" fill="#D564F0"/>
</g>
<g opacity="0.1" filter="url(#filter16_i)">
<path d="M892.167 284.042C892.167 283.864 892.267 283.702 892.426 283.621L905.371 277.039C905.685 276.88 906.056 277.108 906.056 277.46V278.076C906.056 278.254 905.957 278.417 905.798 278.497L892.853 285.079C892.539 285.239 892.167 285.011 892.167 284.659V284.042Z" fill="#D564F0"/>
</g>
<path d="M852.734 267.788C852.748 268.333 853.279 268.861 853.846 269.145L880.15 282.319C881.03 282.76 882.067 282.765 882.951 282.331L909.86 269.151C910.436 268.87 911.045 268.326 911.059 267.776" stroke="#BA46DF" stroke-width="0.786633"/>
<g filter="url(#filter17_f)">
<path d="M882.959 264.581C882.074 264.148 881.038 264.152 880.157 264.593M852.742 279.124C852.756 278.579 853.287 278.051 853.854 277.767L862.529 273.422M911.067 279.136C911.053 278.586 910.443 278.043 909.868 277.761L901.067 273.45" stroke="url(#paint42_linear)" stroke-width="0.786633"/>
</g>
</g>
<path d="M879.567 242.965C880.843 242.354 882.325 242.348 883.606 242.947L908.392 254.551C910.187 255.392 910.209 257.936 908.429 258.808L883.682 270.929C882.359 271.577 880.809 271.57 879.492 270.911L855.309 258.799C853.554 257.92 853.576 255.407 855.346 254.56L879.567 242.965Z" fill="url(#paint43_linear)"/>
<g opacity="0.5" filter="url(#filter18_i)">
<path d="M879.594 245.733C880.87 245.122 882.352 245.116 883.633 245.715L904.428 255.451C905.504 255.955 905.518 257.482 904.45 258.005L883.709 268.164C882.386 268.812 880.836 268.805 879.519 268.145L859.261 257.999C858.208 257.472 858.221 255.964 859.284 255.456L879.594 245.733Z" fill="url(#paint44_linear)"/>
</g>
<path d="M515.984 504.47L520.512 506.586L520.66 502.123L515.984 504.47Z" fill="#F4F6F9"/>
<path d="M515.492 505.164L514.012 504.487L528.957 497.354L530.521 497.966L515.492 505.164Z" fill="#FDFDFE"/>
<path d="M575.122 501.427L570.593 503.544L570.445 499.081L575.122 501.427Z" fill="#DBE2EB"/>
<path d="M575.65 502.216L577.13 501.539L562.27 494.381L560.706 494.993L575.65 502.216Z" fill="#E5EBF1"/>
<path fill-rule="evenodd" clip-rule="evenodd" d="M544.348 467L542.676 467.775L543.792 468.505V507.61L570.829 518.724V480.861C570.829 479.909 570.282 479.042 569.422 478.632L545.557 467.26C545.164 467.073 544.741 467.113 544.408 467.306L544.348 467Z" fill="url(#paint45_linear)"/>
<path d="M569.211 519.484L556.366 521.676L542.174 508.37V469.135C542.174 468.228 543.12 467.63 543.939 468.021L567.804 479.393C568.664 479.803 569.211 480.67 569.211 481.622V519.484Z" fill="url(#paint46_linear)"/>
<mask id="mask2" mask-type="alpha" maskUnits="userSpaceOnUse" x="542" y="467" width="28" height="55">
<path d="M569.211 519.484L556.366 521.676L542.174 508.37V469.135C542.174 468.227 543.12 467.63 543.94 468.02L567.805 479.393C568.664 479.802 569.211 480.67 569.211 481.622V519.484Z" fill="url(#paint47_linear)"/>
</mask>
<g mask="url(#mask2)">
<g opacity="0.3" filter="url(#filter19_f)">
<path d="M565.2 521.192L551.837 524.037L535.532 509.286V468.095L563.764 481.11C564.639 481.513 565.2 482.388 565.2 483.352V521.192Z" fill="#FB4059"/>
</g>
</g>
<path d="M534.273 512.058L561.311 523.172V484.865C561.311 484.184 560.919 483.564 560.305 483.272L535.825 471.603C535.523 471.459 535.197 471.503 534.952 471.668L532.281 472.953L534.273 474.342V512.058Z" fill="url(#paint48_linear)" stroke="url(#paint49_linear)" stroke-width="0.671741"/>
<g filter="url(#filter20_i)">
<path d="M558.398 524.593L545.036 527.438L531.361 513.48V474.244C531.361 473.337 532.307 472.739 533.127 473.13L556.992 484.502C557.851 484.912 558.398 485.779 558.398 486.731V524.593Z" fill="url(#paint50_linear)"/>
</g>
<path d="M558.063 486.731V524.321L545.146 527.071L531.697 513.342V474.244C531.697 473.584 532.386 473.149 532.982 473.433L556.847 484.805C557.59 485.159 558.063 485.908 558.063 486.731Z" stroke="url(#paint51_linear)" stroke-width="0.671741"/>
<g opacity="0.78" filter="url(#filter21_f)">
<path d="M535.522 483.769L535.449 473.174C535.444 472.387 536.257 471.861 536.972 472.19L538.02 472.671" stroke="url(#paint52_linear)" stroke-width="0.671741"/>
</g>
<g filter="url(#filter22_i)">
<path fill-rule="evenodd" clip-rule="evenodd" d="M522.454 477.552L520.781 478.328L521.897 479.058V518.162L548.934 529.276V491.414C548.934 490.462 548.387 489.594 547.528 489.185L523.663 477.812C523.269 477.625 522.847 477.665 522.514 477.858L522.454 477.552Z" fill="url(#paint53_linear)"/>
</g>
<path d="M547.316 530.036L520.279 518.923V479.687C520.279 478.78 521.225 478.182 522.045 478.573L545.91 489.945C546.769 490.355 547.316 491.222 547.316 492.174V530.036Z" fill="url(#paint54_linear)"/>
<path d="M543.637 517.564L543.66 517.575L542.606 518.171L514.012 504.473L515.424 503.82L541.659 516.121C542.183 516.367 542.79 516.366 543.314 516.119L575.717 500.807L577.115 501.531L543.637 517.564Z" fill="url(#paint55_linear)"/>
<path d="M541.085 517.384C542.001 517.822 543.065 517.821 543.98 517.383L577.113 501.534V515.453C577.113 516.065 576.761 516.623 576.209 516.887L543.98 532.304C543.065 532.742 542.001 532.743 541.085 532.305L514.905 519.803C514.352 519.539 514 518.981 514 518.368V504.45L541.085 517.384Z" fill="url(#paint56_linear)"/>
<path d="M541.085 517.384C542.001 517.822 543.065 517.821 543.98 517.383L577.113 501.534V515.453C577.113 516.065 576.761 516.623 576.209 516.887L543.98 532.304C543.065 532.742 542.001 532.743 541.085 532.305L514.905 519.803C514.352 519.539 514 518.981 514 518.368V504.45L541.085 517.384Z" fill="url(#paint57_linear)"/>
<path d="M523.708 483.168L542.482 492.134V493.569L523.708 484.604V483.168Z" fill="#F1F4F8"/>
<path opacity="0.3" d="M523.708 487.627L538.512 494.697V496.132L523.708 489.063V487.627Z" fill="#F1F4F8"/>
<path opacity="0.4" d="M523.708 492.086L533.095 496.569V498.005L523.708 493.522V492.086Z" fill="#F1F4F8"/>
<path opacity="0.4" d="M523.708 496.545L542.482 505.51V506.946L523.708 497.981V496.545Z" fill="#F1F4F8"/>
<path opacity="0.6" d="M523.708 501.005L542.482 509.97V511.406L523.708 502.44V501.005Z" fill="#F1F4F8"/>
<path fill-rule="evenodd" clip-rule="evenodd" d="M748.433 626.154L750.658 625.104L750.206 626.08L748.433 626.154ZM782.421 690.934L780.196 691.985L780.649 691.009L782.421 690.934ZM755.136 626.083C752.248 624.657 748.867 626.759 748.867 629.98V672.88C748.867 674.534 749.806 676.045 751.289 676.777L777.961 689.942C780.85 691.368 784.231 689.266 784.231 686.045V643.145C784.231 641.491 783.292 639.98 781.809 639.248L755.136 626.083Z" fill="url(#paint58_linear)"/>
<path d="M746.73 630.992C746.73 627.771 750.112 625.669 753 627.095L779.672 640.26C781.156 640.992 782.095 642.503 782.095 644.157V687.057C782.095 690.278 778.714 692.38 775.825 690.954L749.153 677.789C747.67 677.057 746.73 675.546 746.73 673.892V630.992Z" fill="url(#paint59_linear)"/>
<g opacity="0.6" filter="url(#filter23_f)">
<path d="M748.738 628.708L742.301 631.864L771.388 693.159L778.212 690.085C779.096 689.688 779.664 688.809 779.664 687.84V644.902C779.664 643.805 779.044 642.802 778.064 642.311L750.925 628.718C750.238 628.373 749.429 628.37 748.738 628.708Z" fill="url(#paint60_linear)"/>
</g>
<path d="M748.738 628.708L742.301 631.864L771.388 693.159L778.212 690.085C779.096 689.688 779.664 688.809 779.664 687.84V644.902C779.664 643.805 779.044 642.802 778.064 642.311L750.925 628.718C750.238 628.373 749.429 628.37 748.738 628.708Z" fill="url(#paint61_linear)"/>
<mask id="mask3" mask-type="alpha" maskUnits="userSpaceOnUse" x="742" y="628" width="38" height="66">
<path d="M748.738 628.709L742.301 631.865L771.388 693.159L778.212 690.086C779.096 689.688 779.664 688.809 779.664 687.84V644.902C779.664 643.806 779.044 642.803 778.064 642.312L750.925 628.718C750.238 628.374 749.429 628.37 748.738 628.709Z" fill="url(#paint62_linear)"/>
</mask>
<g mask="url(#mask3)">
<path d="M749.83 629.752V635.731L742.641 631.882L749.418 628.615L750.58 629.002C750.166 629.002 749.83 629.338 749.83 629.752Z" fill="url(#paint63_linear)"/>
<g filter="url(#filter24_f)">
<path d="M749.887 636.037V630.456C749.887 629.606 750.77 629.046 751.539 629.407L753.246 630.21" stroke="#11BBFA" stroke-width="0.724359"/>
</g>
<g opacity="0.34" filter="url(#filter25_f)">
<path d="M779.474 686.895V686.895C779.474 688.088 778.198 688.846 777.15 688.276L770.938 684.893" stroke="#1289F6" stroke-width="0.724359"/>
</g>
<path d="M771.563 692.683L742.781 632.033L748.898 629.034C749.487 628.745 750.177 628.748 750.763 629.042L777.902 642.636C778.76 643.065 779.302 643.943 779.302 644.902V687.84C779.302 688.667 778.817 689.416 778.063 689.756L771.563 692.683Z" stroke="url(#paint64_linear)" stroke-width="0.724359"/>
</g>
<g opacity="0.2">
<mask id="mask4" mask-type="alpha" maskUnits="userSpaceOnUse" x="742" y="628" width="38" height="66">
<path d="M748.738 628.709L742.301 631.865L771.388 693.159L778.212 690.086C779.096 689.688 779.664 688.809 779.664 687.84V644.902C779.664 643.806 779.044 642.803 778.064 642.312L750.925 628.718C750.238 628.374 749.429 628.37 748.738 628.709Z" fill="url(#paint65_linear)"/>
</mask>
<g mask="url(#mask4)">
<g style="mix-blend-mode:overlay" filter="url(#filter26_f)">
<path d="M773.139 642.875L745.804 629.093L739.679 631.107L741.022 633.876L757.132 673.312L769.13 694.037L775.927 692.275V647.402C775.927 645.488 774.849 643.736 773.139 642.875Z" fill="black"/>
</g>
</g>
</g>
<path fill-rule="evenodd" clip-rule="evenodd" d="M736.793 631.915L739.019 630.865L738.566 631.841L736.793 631.915ZM770.782 696.696L768.556 697.746L769.009 696.77L770.782 696.696ZM743.497 631.844C740.609 630.419 737.227 632.521 737.227 635.742V678.641C737.227 680.296 738.166 681.806 739.65 682.539L766.322 695.704C769.21 697.129 772.592 695.028 772.592 691.806V648.907C772.592 647.252 771.653 645.742 770.169 645.009L743.497 631.844Z" fill="url(#paint66_linear)"/>
<path d="M735.086 636.753C735.086 633.532 738.467 631.43 741.356 632.856L768.028 646.021C769.511 646.753 770.45 648.264 770.45 649.918V692.818C770.45 696.039 767.069 698.141 764.181 696.715L737.508 683.55C736.025 682.818 735.086 681.307 735.086 679.653V636.753Z" fill="url(#paint67_linear)"/>
<g filter="url(#filter27_i)">
<path d="M773.735 654.877C773.735 654.589 773.899 654.326 774.157 654.199L777.858 652.381C778.36 652.135 778.946 652.5 778.946 653.059C778.946 653.346 778.782 653.609 778.524 653.736L774.823 655.554C774.321 655.801 773.735 655.436 773.735 654.877Z" fill="url(#paint68_linear)"/>
</g>
<g filter="url(#filter28_i)">
<path d="M773.735 657.813C773.735 657.525 773.899 657.262 774.157 657.135L777.858 655.317C778.36 655.07 778.946 655.436 778.946 655.994C778.946 656.282 778.782 656.545 778.524 656.672L774.823 658.49C774.321 658.737 773.735 658.371 773.735 657.813Z" fill="url(#paint69_linear)"/>
</g>
<g filter="url(#filter29_i)">
<path d="M773.735 660.748C773.735 660.46 773.899 660.197 774.157 660.07L777.858 658.252C778.36 658.006 778.946 658.371 778.946 658.93C778.946 659.218 778.782 659.48 778.524 659.607L774.823 661.425C774.321 661.672 773.735 661.307 773.735 660.748Z" fill="url(#paint70_linear)"/>
</g>
<g filter="url(#filter30_i)">
<path d="M773.735 663.684C773.735 663.396 773.899 663.133 774.157 663.006L777.858 661.188C778.36 660.942 778.946 661.307 778.946 661.866C778.946 662.153 778.782 662.416 778.524 662.543L774.823 664.361C774.321 664.608 773.735 664.243 773.735 663.684Z" fill="url(#paint71_linear)"/>
</g>
<g filter="url(#filter31_i)">
<path d="M773.735 666.619C773.735 666.331 773.899 666.069 774.157 665.942L777.858 664.123C778.36 663.877 778.946 664.242 778.946 664.801C778.946 665.089 778.782 665.352 778.524 665.479L774.823 667.297C774.321 667.543 773.735 667.178 773.735 666.619Z" fill="url(#paint72_linear)"/>
</g>
<g filter="url(#filter32_i)">
<path d="M773.735 669.555C773.735 669.267 773.899 669.004 774.157 668.877L777.858 667.059C778.36 666.813 778.946 667.178 778.946 667.737C778.946 668.025 778.782 668.288 778.524 668.414L774.823 670.233C774.321 670.479 773.735 670.114 773.735 669.555Z" fill="url(#paint73_linear)"/>
</g>
<ellipse cx="752.738" cy="657.908" rx="18.573" ry="10.1057" transform="rotate(61.6417 752.738 657.908)" fill="url(#paint74_linear)"/>
<ellipse cx="751.715" cy="658.913" rx="18.573" ry="10.1057" transform="rotate(61.6417 751.715 658.913)" fill="url(#paint75_linear)"/>
<ellipse cx="751.72" cy="658.913" rx="4.73601" ry="2.57689" transform="rotate(61.6417 751.72 658.913)" fill="#EBEFF4"/>
<ellipse opacity="0.4" cx="767.299" cy="649.048" rx="1.43696" ry="0.78186" transform="rotate(61.6417 767.299 649.048)" fill="#CAD4DF"/>
<ellipse opacity="0.4" cx="737.717" cy="636.414" rx="1.43696" ry="0.78186" transform="rotate(61.6417 737.717 636.414)" fill="#CAD4DF"/>
<ellipse opacity="0.4" cx="767.295" cy="660.046" rx="1.43696" ry="0.78186" transform="rotate(61.6417 767.295 660.046)" fill="#CAD4DF"/>
<ellipse opacity="0.4" cx="737.71" cy="647.412" rx="1.43696" ry="0.78186" transform="rotate(61.6417 737.71 647.412)" fill="#CAD4DF"/>
<ellipse opacity="0.4" cx="767.295" cy="671.045" rx="1.43696" ry="0.78186" transform="rotate(61.6417 767.295 671.045)" fill="#CAD4DF"/>
<ellipse opacity="0.4" cx="737.702" cy="658.41" rx="1.43696" ry="0.78186" transform="rotate(61.6417 737.702 658.41)" fill="#CAD4DF"/>
<ellipse opacity="0.4" cx="767.287" cy="682.043" rx="1.43696" ry="0.78186" transform="rotate(61.6417 767.287 682.043)" fill="#CAD4DF"/>
<ellipse opacity="0.4" cx="737.698" cy="669.409" rx="1.43696" ry="0.78186" transform="rotate(61.6417 737.698 669.409)" fill="#CAD4DF"/>
<ellipse opacity="0.4" cx="767.28" cy="693.041" rx="1.43696" ry="0.78186" transform="rotate(61.6417 767.28 693.041)" fill="#CAD4DF"/>
<ellipse opacity="0.4" cx="737.69" cy="680.407" rx="1.43696" ry="0.78186" transform="rotate(61.6417 737.69 680.407)" fill="#CAD4DF"/>
<path d="M762.195 684.896C763.068 686.647 762.957 688.475 761.946 688.979C760.935 689.484 759.408 688.473 758.535 686.722C757.872 685.393 753.951 674.891 752.102 669.913C751.9 669.368 752.323 669.157 752.636 669.647C755.501 674.118 761.532 683.567 762.195 684.896Z" fill="url(#paint76_linear)"/>
<path d="M751.254 669.146L751.877 668.759L752.905 670.862L752.735 671.655L751.254 669.146Z" fill="#E0E7EF"/>
<path d="M761.574 685.268C762.447 687.019 762.336 688.847 761.325 689.351C760.314 689.856 758.787 688.845 757.914 687.094C757.25 685.765 753.33 675.263 751.481 670.285C751.279 669.74 751.702 669.529 752.015 670.019C754.88 674.49 760.911 683.939 761.574 685.268Z" fill="url(#paint77_linear)"/>
</g>
<defs>
<filter id="filter0_d" x="535.504" y="201.161" width="193.298" height="193.298" filterUnits="userSpaceOnUse" color-interpolation-filters="sRGB">
<feFlood flood-opacity="0" result="BackgroundImageFix"/>
<feColorMatrix in="SourceAlpha" type="matrix" values="0 0 0 0 0 0 0 0 0 0 0 0 0 0 0 0 0 0 127 0"/>
<feOffset dy="27.1089"/>
<feGaussianBlur stdDeviation="17.6797"/>
<feColorMatrix type="matrix" values="0 0 0 0 0.0175 0 0 0 0 0.4602 0 0 0 0 0.6 0 0 0 0.15 0"/>
<feBlend mode="normal" in2="BackgroundImageFix" result="effect1_dropShadow"/>
<feBlend mode="normal" in="SourceGraphic" in2="effect1_dropShadow" result="shape"/>
</filter>
<filter id="filter1_d" x="785.375" y="201.161" width="193.298" height="193.298" filterUnits="userSpaceOnUse" color-interpolation-filters="sRGB">
<feFlood flood-opacity="0" result="BackgroundImageFix"/>
<feColorMatrix in="SourceAlpha" type="matrix" values="0 0 0 0 0 0 0 0 0 0 0 0 0 0 0 0 0 0 127 0"/>
<feOffset dy="27.1089"/>
<feGaussianBlur stdDeviation="17.6797"/>
<feColorMatrix type="matrix" values="0 0 0 0 0.0175 0 0 0 0 0.4602 0 0 0 0 0.6 0 0 0 0.15 0"/>
<feBlend mode="normal" in2="BackgroundImageFix" result="effect1_dropShadow"/>
<feBlend mode="normal" in="SourceGraphic" in2="effect1_dropShadow" result="shape"/>
</filter>
<filter id="filter2_d" x="868.641" y="429.749" width="193.298" height="193.298" filterUnits="userSpaceOnUse" color-interpolation-filters="sRGB">
<feFlood flood-opacity="0" result="BackgroundImageFix"/>
<feColorMatrix in="SourceAlpha" type="matrix" values="0 0 0 0 0 0 0 0 0 0 0 0 0 0 0 0 0 0 127 0"/>
<feOffset dy="27.1089"/>
<feGaussianBlur stdDeviation="17.6797"/>
<feColorMatrix type="matrix" values="0 0 0 0 0.0175 0 0 0 0 0.4602 0 0 0 0 0.6 0 0 0 0.15 0"/>
<feBlend mode="normal" in2="BackgroundImageFix" result="effect1_dropShadow"/>
<feBlend mode="normal" in="SourceGraphic" in2="effect1_dropShadow" result="shape"/>
</filter>
<filter id="filter3_f" x="920.605" y="439.531" width="92.7502" height="94.2005" filterUnits="userSpaceOnUse" color-interpolation-filters="sRGB">
<feFlood flood-opacity="0" result="BackgroundImageFix"/>
<feBlend mode="normal" in="SourceGraphic" in2="BackgroundImageFix" result="shape"/>
<feGaussianBlur stdDeviation="14.6455" result="effect1_foregroundBlur"/>
</filter>
<filter id="filter4_ii" x="949.896" y="467.249" width="29.44" height="34.8325" filterUnits="userSpaceOnUse" color-interpolation-filters="sRGB">
<feFlood flood-opacity="0" result="BackgroundImageFix"/>
<feBlend mode="normal" in="SourceGraphic" in2="BackgroundImageFix" result="shape"/>
<feColorMatrix in="SourceAlpha" type="matrix" values="0 0 0 0 0 0 0 0 0 0 0 0 0 0 0 0 0 0 127 0" result="hardAlpha"/>
<feOffset dy="1.41161"/>
<feGaussianBlur stdDeviation="1.23516"/>
<feComposite in2="hardAlpha" operator="arithmetic" k2="-1" k3="1"/>
<feColorMatrix type="matrix" values="0 0 0 0 0.996078 0 0 0 0 0.631373 0 0 0 0 0.054902 0 0 0 1 0"/>
<feBlend mode="normal" in2="shape" result="effect1_innerShadow"/>
<feColorMatrix in="SourceAlpha" type="matrix" values="0 0 0 0 0 0 0 0 0 0 0 0 0 0 0 0 0 0 127 0" result="hardAlpha"/>
<feOffset dy="-1.57295"/>
<feGaussianBlur stdDeviation="1.965"/>
<feComposite in2="hardAlpha" operator="arithmetic" k2="-1" k3="1"/>
<feColorMatrix type="matrix" values="0 0 0 0 1 0 0 0 0 1 0 0 0 0 1 0 0 0 0.33 0"/>
<feBlend mode="normal" in2="effect1_innerShadow" result="effect2_innerShadow"/>
</filter>
<filter id="filter5_f" x="956.822" y="475.498" width="18.923" height="21.5598" filterUnits="userSpaceOnUse" color-interpolation-filters="sRGB">
<feFlood flood-opacity="0" result="BackgroundImageFix"/>
<feBlend mode="normal" in="SourceGraphic" in2="BackgroundImageFix" result="shape"/>
<feGaussianBlur stdDeviation="0.165574" result="effect1_foregroundBlur"/>
</filter>
<filter id="filter6_f" x="960.595" y="479.147" width="17.1684" height="18.5376" filterUnits="userSpaceOnUse" color-interpolation-filters="sRGB">
<feFlood flood-opacity="0" result="BackgroundImageFix"/>
<feBlend mode="normal" in="SourceGraphic" in2="BackgroundImageFix" result="shape"/>
<feGaussianBlur stdDeviation="0.165574" result="effect1_foregroundBlur"/>
</filter>
<filter id="filter7_i" x="941.914" y="501.052" width="20.9741" height="30.7514" filterUnits="userSpaceOnUse" color-interpolation-filters="sRGB">
<feFlood flood-opacity="0" result="BackgroundImageFix"/>
<feBlend mode="normal" in="SourceGraphic" in2="BackgroundImageFix" result="shape"/>
<feColorMatrix in="SourceAlpha" type="matrix" values="0 0 0 0 0 0 0 0 0 0 0 0 0 0 0 0 0 0 127 0" result="hardAlpha"/>
<feOffset dx="-0.176452" dy="-2.29387"/>
<feGaussianBlur stdDeviation="2.735"/>
<feComposite in2="hardAlpha" operator="arithmetic" k2="-1" k3="1"/>
<feColorMatrix type="matrix" values="0 0 0 0 0.635938 0 0 0 0 0.661719 0 0 0 0 0.6875 0 0 0 0.22 0"/>
<feBlend mode="normal" in2="shape" result="effect1_innerShadow"/>
</filter>
<filter id="filter8_f" x="947.574" y="460.78" width="39.1267" height="44.8663" filterUnits="userSpaceOnUse" color-interpolation-filters="sRGB">
<feFlood flood-opacity="0" result="BackgroundImageFix"/>
<feBlend mode="normal" in="SourceGraphic" in2="BackgroundImageFix" result="shape"/>
<feGaussianBlur stdDeviation="2.20221" result="effect1_foregroundBlur"/>
</filter>
<filter id="filter9_d" x="662.797" y="587.758" width="193.298" height="193.298" filterUnits="userSpaceOnUse" color-interpolation-filters="sRGB">
<feFlood flood-opacity="0" result="BackgroundImageFix"/>
<feColorMatrix in="SourceAlpha" type="matrix" values="0 0 0 0 0 0 0 0 0 0 0 0 0 0 0 0 0 0 127 0"/>
<feOffset dy="27.1089"/>
<feGaussianBlur stdDeviation="17.6797"/>
<feColorMatrix type="matrix" values="0 0 0 0 0.0175 0 0 0 0 0.4602 0 0 0 0 0.6 0 0 0 0.15 0"/>
<feBlend mode="normal" in2="BackgroundImageFix" result="effect1_dropShadow"/>
<feBlend mode="normal" in="SourceGraphic" in2="effect1_dropShadow" result="shape"/>
</filter>
<filter id="filter10_d" x="450.641" y="429.819" width="193.298" height="193.298" filterUnits="userSpaceOnUse" color-interpolation-filters="sRGB">
<feFlood flood-opacity="0" result="BackgroundImageFix"/>
<feColorMatrix in="SourceAlpha" type="matrix" values="0 0 0 0 0 0 0 0 0 0 0 0 0 0 0 0 0 0 127 0"/>
<feOffset dy="27.1089"/>
<feGaussianBlur stdDeviation="17.6797"/>
<feColorMatrix type="matrix" values="0 0 0 0 0.0175 0 0 0 0 0.4602 0 0 0 0 0.6 0 0 0 0.15 0"/>
<feBlend mode="normal" in2="BackgroundImageFix" result="effect1_dropShadow"/>
<feBlend mode="normal" in="SourceGraphic" in2="effect1_dropShadow" result="shape"/>
</filter>
<filter id="filter11_f" x="606.077" y="269.886" width="53.8132" height="9.04913" filterUnits="userSpaceOnUse" color-interpolation-filters="sRGB">
<feFlood flood-opacity="0" result="BackgroundImageFix"/>
<feBlend mode="normal" in="SourceGraphic" in2="BackgroundImageFix" result="shape"/>
<feGaussianBlur stdDeviation="0.375345" result="effect1_foregroundBlur"/>
</filter>
<filter id="filter12_f" x="586.356" y="244.401" width="93.3146" height="64.4536" filterUnits="userSpaceOnUse" color-interpolation-filters="sRGB">
<feFlood flood-opacity="0" result="BackgroundImageFix"/>
<feBlend mode="normal" in="SourceGraphic" in2="BackgroundImageFix" result="shape"/>
<feGaussianBlur stdDeviation="10.322" result="effect1_foregroundBlur"/>
</filter>
<filter id="filter13_i" x="623.85" y="244.121" width="18.2807" height="13.9673" filterUnits="userSpaceOnUse" color-interpolation-filters="sRGB">
<feFlood flood-opacity="0" result="BackgroundImageFix"/>
<feBlend mode="normal" in="SourceGraphic" in2="BackgroundImageFix" result="shape"/>
<feColorMatrix in="SourceAlpha" type="matrix" values="0 0 0 0 0 0 0 0 0 0 0 0 0 0 0 0 0 0 127 0" result="hardAlpha"/>
<feOffset dy="1.87672"/>
<feComposite in2="hardAlpha" operator="arithmetic" k2="-1" k3="1"/>
<feColorMatrix type="matrix" values="0 0 0 0 0.796078 0 0 0 0 0.843137 0 0 0 0 0.894118 0 0 0 1 0"/>
<feBlend mode="normal" in2="shape" result="effect1_innerShadow"/>
</filter>
<filter id="filter14_f" x="835.233" y="250.845" width="93.3332" height="60.8699" filterUnits="userSpaceOnUse" color-interpolation-filters="sRGB">
<feFlood flood-opacity="0" result="BackgroundImageFix"/>
<feBlend mode="normal" in="SourceGraphic" in2="BackgroundImageFix" result="shape"/>
<feGaussianBlur stdDeviation="8.65297" result="effect1_foregroundBlur"/>
</filter>
<filter id="filter15_i" x="886.878" y="284.573" width="2.81452" height="3.82843" filterUnits="userSpaceOnUse" color-interpolation-filters="sRGB">
<feFlood flood-opacity="0" result="BackgroundImageFix"/>
<feBlend mode="normal" in="SourceGraphic" in2="BackgroundImageFix" result="shape"/>
<feColorMatrix in="SourceAlpha" type="matrix" values="0 0 0 0 0 0 0 0 0 0 0 0 0 0 0 0 0 0 127 0" result="hardAlpha"/>
<feOffset dx="-0.629307" dy="-0.47198"/>
<feComposite in2="hardAlpha" operator="arithmetic" k2="-1" k3="1"/>
<feColorMatrix type="matrix" values="0 0 0 0 0 0 0 0 0 0 0 0 0 0 0 0 0 0 0.34 0"/>
<feBlend mode="normal" in2="shape" result="effect1_innerShadow"/>
</filter>
<filter id="filter16_i" x="892.167" y="276.987" width="13.889" height="8.14384" filterUnits="userSpaceOnUse" color-interpolation-filters="sRGB">
<feFlood flood-opacity="0" result="BackgroundImageFix"/>
<feBlend mode="normal" in="SourceGraphic" in2="BackgroundImageFix" result="shape"/>
<feColorMatrix in="SourceAlpha" type="matrix" values="0 0 0 0 0 0 0 0 0 0 0 0 0 0 0 0 0 0 127 0" result="hardAlpha"/>
<feOffset dx="-0.629307" dy="-0.47198"/>
<feComposite in2="hardAlpha" operator="arithmetic" k2="-1" k3="1"/>
<feColorMatrix type="matrix" values="0 0 0 0 0 0 0 0 0 0 0 0 0 0 0 0 0 0 0.34 0"/>
<feBlend mode="normal" in2="shape" result="effect1_innerShadow"/>
</filter>
<filter id="filter17_f" x="851.72" y="263.237" width="60.3697" height="16.5388" filterUnits="userSpaceOnUse" color-interpolation-filters="sRGB">
<feFlood flood-opacity="0" result="BackgroundImageFix"/>
<feBlend mode="normal" in="SourceGraphic" in2="BackgroundImageFix" result="shape"/>
<feGaussianBlur stdDeviation="0.314653" result="effect1_foregroundBlur"/>
</filter>
<filter id="filter18_i" x="858.479" y="245.27" width="46.7641" height="23.3747" filterUnits="userSpaceOnUse" color-interpolation-filters="sRGB">
<feFlood flood-opacity="0" result="BackgroundImageFix"/>
<feBlend mode="normal" in="SourceGraphic" in2="BackgroundImageFix" result="shape"/>
<feColorMatrix in="SourceAlpha" type="matrix" values="0 0 0 0 0 0 0 0 0 0 0 0 0 0 0 0 0 0 127 0" result="hardAlpha"/>
<feOffset dy="1.41594"/>
<feComposite in2="hardAlpha" operator="arithmetic" k2="-1" k3="1"/>
<feColorMatrix type="matrix" values="0 0 0 0 0.8175 0 0 0 0 0.856429 0 0 0 0 0.908333 0 0 0 1 0"/>
<feBlend mode="normal" in2="shape" result="effect1_innerShadow"/>
</filter>
<filter id="filter19_f" x="529.889" y="462.453" width="40.9534" height="67.2268" filterUnits="userSpaceOnUse" color-interpolation-filters="sRGB">
<feFlood flood-opacity="0" result="BackgroundImageFix"/>
<feBlend mode="normal" in="SourceGraphic" in2="BackgroundImageFix" result="shape"/>
<feGaussianBlur stdDeviation="2.82131" result="effect1_foregroundBlur"/>
</filter>
<filter id="filter20_i" x="531.361" y="470.717" width="27.0374" height="56.7207" filterUnits="userSpaceOnUse" color-interpolation-filters="sRGB">
<feFlood flood-opacity="0" result="BackgroundImageFix"/>
<feBlend mode="normal" in="SourceGraphic" in2="BackgroundImageFix" result="shape"/>
<feColorMatrix in="SourceAlpha" type="matrix" values="0 0 0 0 0 0 0 0 0 0 0 0 0 0 0 0 0 0 127 0" result="hardAlpha"/>
<feOffset dy="-2.2908"/>
<feGaussianBlur stdDeviation="3.4362"/>
<feComposite in2="hardAlpha" operator="arithmetic" k2="-1" k3="1"/>
<feColorMatrix type="matrix" values="0 0 0 0 1 0 0 0 0 1 0 0 0 0 1 0 0 0 0.96 0"/>
<feBlend mode="overlay" in2="shape" result="effect1_innerShadow"/>
</filter>
<filter id="filter21_f" x="534.576" y="471.217" width="4.12165" height="13.0924" filterUnits="userSpaceOnUse" color-interpolation-filters="sRGB">
<feFlood flood-opacity="0" result="BackgroundImageFix"/>
<feBlend mode="normal" in="SourceGraphic" in2="BackgroundImageFix" result="shape"/>
<feGaussianBlur stdDeviation="0.268696" result="effect1_foregroundBlur"/>
</filter>
<filter id="filter22_i" x="519.841" y="477.552" width="29.0936" height="52.7984" filterUnits="userSpaceOnUse" color-interpolation-filters="sRGB">
<feFlood flood-opacity="0" result="BackgroundImageFix"/>
<feBlend mode="normal" in="SourceGraphic" in2="BackgroundImageFix" result="shape"/>
<feColorMatrix in="SourceAlpha" type="matrix" values="0 0 0 0 0 0 0 0 0 0 0 0 0 0 0 0 0 0 127 0" result="hardAlpha"/>
<feOffset dx="-0.940437" dy="1.07479"/>
<feGaussianBlur stdDeviation="1.41066"/>
<feComposite in2="hardAlpha" operator="arithmetic" k2="-1" k3="1"/>
<feColorMatrix type="matrix" values="0 0 0 0 0.984314 0 0 0 0 0.32549 0 0 0 0 0.423529 0 0 0 0.24 0"/>
<feBlend mode="normal" in2="shape" result="effect1_innerShadow"/>
</filter>
<filter id="filter23_f" x="733.753" y="619.909" width="54.4578" height="81.7967" filterUnits="userSpaceOnUse" color-interpolation-filters="sRGB">
<feFlood flood-opacity="0" result="BackgroundImageFix"/>
<feBlend mode="normal" in="SourceGraphic" in2="BackgroundImageFix" result="shape"/>
<feGaussianBlur stdDeviation="4.27372" result="effect1_foregroundBlur"/>
</filter>
<filter id="filter24_f" x="749.09" y="628.498" width="4.74439" height="7.97349" filterUnits="userSpaceOnUse" color-interpolation-filters="sRGB">
<feFlood flood-opacity="0" result="BackgroundImageFix"/>
<feBlend mode="normal" in="SourceGraphic" in2="BackgroundImageFix" result="shape"/>
<feGaussianBlur stdDeviation="0.217308" result="effect1_foregroundBlur"/>
</filter>
<filter id="filter25_f" x="770.33" y="684.14" width="9.94109" height="5.12616" filterUnits="userSpaceOnUse" color-interpolation-filters="sRGB">
<feFlood flood-opacity="0" result="BackgroundImageFix"/>
<feBlend mode="normal" in="SourceGraphic" in2="BackgroundImageFix" result="shape"/>
<feGaussianBlur stdDeviation="0.217308" result="effect1_foregroundBlur"/>
</filter>
<filter id="filter26_f" x="734.029" y="623.443" width="47.5477" height="76.2438" filterUnits="userSpaceOnUse" color-interpolation-filters="sRGB">
<feFlood flood-opacity="0" result="BackgroundImageFix"/>
<feBlend mode="normal" in="SourceGraphic" in2="BackgroundImageFix" result="shape"/>
<feGaussianBlur stdDeviation="2.825" result="effect1_foregroundBlur"/>
</filter>
<filter id="filter27_i" x="773.735" y="652.303" width="5.21113" height="3.32995" filterUnits="userSpaceOnUse" color-interpolation-filters="sRGB">
<feFlood flood-opacity="0" result="BackgroundImageFix"/>
<feBlend mode="normal" in="SourceGraphic" in2="BackgroundImageFix" result="shape"/>
<feColorMatrix in="SourceAlpha" type="matrix" values="0 0 0 0 0 0 0 0 0 0 0 0 0 0 0 0 0 0 127 0" result="hardAlpha"/>
<feOffset dx="-1.0141" dy="-0.434615"/>
<feComposite in2="hardAlpha" operator="arithmetic" k2="-1" k3="1"/>
<feColorMatrix type="matrix" values="0 0 0 0 0.0823529 0 0 0 0 0.447059 0 0 0 0 0.94902 0 0 0 0.18 0"/>
<feBlend mode="normal" in2="shape" result="effect1_innerShadow"/>
</filter>
<filter id="filter28_i" x="773.735" y="655.239" width="5.21113" height="3.32995" filterUnits="userSpaceOnUse" color-interpolation-filters="sRGB">
<feFlood flood-opacity="0" result="BackgroundImageFix"/>
<feBlend mode="normal" in="SourceGraphic" in2="BackgroundImageFix" result="shape"/>
<feColorMatrix in="SourceAlpha" type="matrix" values="0 0 0 0 0 0 0 0 0 0 0 0 0 0 0 0 0 0 127 0" result="hardAlpha"/>
<feOffset dx="-1.0141" dy="-0.434615"/>
<feComposite in2="hardAlpha" operator="arithmetic" k2="-1" k3="1"/>
<feColorMatrix type="matrix" values="0 0 0 0 0.0823529 0 0 0 0 0.447059 0 0 0 0 0.94902 0 0 0 0.18 0"/>
<feBlend mode="normal" in2="shape" result="effect1_innerShadow"/>
</filter>
<filter id="filter29_i" x="773.735" y="658.174" width="5.21113" height="3.32995" filterUnits="userSpaceOnUse" color-interpolation-filters="sRGB">
<feFlood flood-opacity="0" result="BackgroundImageFix"/>
<feBlend mode="normal" in="SourceGraphic" in2="BackgroundImageFix" result="shape"/>
<feColorMatrix in="SourceAlpha" type="matrix" values="0 0 0 0 0 0 0 0 0 0 0 0 0 0 0 0 0 0 127 0" result="hardAlpha"/>
<feOffset dx="-1.0141" dy="-0.434615"/>
<feComposite in2="hardAlpha" operator="arithmetic" k2="-1" k3="1"/>
<feColorMatrix type="matrix" values="0 0 0 0 0.0823529 0 0 0 0 0.447059 0 0 0 0 0.94902 0 0 0 0.18 0"/>
<feBlend mode="normal" in2="shape" result="effect1_innerShadow"/>
</filter>
<filter id="filter30_i" x="773.735" y="661.11" width="5.21113" height="3.32995" filterUnits="userSpaceOnUse" color-interpolation-filters="sRGB">
<feFlood flood-opacity="0" result="BackgroundImageFix"/>
<feBlend mode="normal" in="SourceGraphic" in2="BackgroundImageFix" result="shape"/>
<feColorMatrix in="SourceAlpha" type="matrix" values="0 0 0 0 0 0 0 0 0 0 0 0 0 0 0 0 0 0 127 0" result="hardAlpha"/>
<feOffset dx="-1.0141" dy="-0.434615"/>
<feComposite in2="hardAlpha" operator="arithmetic" k2="-1" k3="1"/>
<feColorMatrix type="matrix" values="0 0 0 0 0.0823529 0 0 0 0 0.447059 0 0 0 0 0.94902 0 0 0 0.18 0"/>
<feBlend mode="normal" in2="shape" result="effect1_innerShadow"/>
</filter>
<filter id="filter31_i" x="773.735" y="664.045" width="5.21113" height="3.32995" filterUnits="userSpaceOnUse" color-interpolation-filters="sRGB">
<feFlood flood-opacity="0" result="BackgroundImageFix"/>
<feBlend mode="normal" in="SourceGraphic" in2="BackgroundImageFix" result="shape"/>
<feColorMatrix in="SourceAlpha" type="matrix" values="0 0 0 0 0 0 0 0 0 0 0 0 0 0 0 0 0 0 127 0" result="hardAlpha"/>
<feOffset dx="-1.0141" dy="-0.434615"/>
<feComposite in2="hardAlpha" operator="arithmetic" k2="-1" k3="1"/>
<feColorMatrix type="matrix" values="0 0 0 0 0.0823529 0 0 0 0 0.447059 0 0 0 0 0.94902 0 0 0 0.18 0"/>
<feBlend mode="normal" in2="shape" result="effect1_innerShadow"/>
</filter>
<filter id="filter32_i" x="773.735" y="666.981" width="5.21113" height="3.32995" filterUnits="userSpaceOnUse" color-interpolation-filters="sRGB">
<feFlood flood-opacity="0" result="BackgroundImageFix"/>
<feBlend mode="normal" in="SourceGraphic" in2="BackgroundImageFix" result="shape"/>
<feColorMatrix in="SourceAlpha" type="matrix" values="0 0 0 0 0 0 0 0 0 0 0 0 0 0 0 0 0 0 127 0" result="hardAlpha"/>
<feOffset dx="-1.0141" dy="-0.434615"/>
<feComposite in2="hardAlpha" operator="arithmetic" k2="-1" k3="1"/>
<feColorMatrix type="matrix" values="0 0 0 0 0.0823529 0 0 0 0 0.447059 0 0 0 0 0.94902 0 0 0 0.18 0"/>
<feBlend mode="normal" in2="shape" result="effect1_innerShadow"/>
</filter>
<linearGradient id="paint0_linear" x1="920.248" y1="663.462" x2="447.496" y2="528.282" gradientUnits="userSpaceOnUse">
<stop stop-color="#E9ECEE"/>
<stop offset="0.733878" stop-color="#E9EDEE" stop-opacity="0.69"/>
<stop offset="1" stop-color="#E9ECEE" stop-opacity="0"/>
</linearGradient>
<linearGradient id="paint1_linear" x1="991" y1="289.5" x2="1221.5" y2="188.5" gradientUnits="userSpaceOnUse">
<stop stop-color="#E9ECEE"/>
<stop offset="1" stop-color="#F7F8F9" stop-opacity="0"/>
</linearGradient>
<linearGradient id="paint2_linear" x1="1054.19" y1="291.308" x2="1211.19" y2="222.513" gradientUnits="userSpaceOnUse">
<stop stop-color="#E9ECEE"/>
<stop offset="1" stop-color="#F7F8F9" stop-opacity="0"/>
</linearGradient>
<linearGradient id="paint3_linear" x1="515.344" y1="301.5" x2="284.844" y2="200.5" gradientUnits="userSpaceOnUse">
<stop stop-color="#E9ECEE"/>
<stop offset="1" stop-color="#F7F8F9" stop-opacity="0"/>
</linearGradient>
<linearGradient id="paint4_linear" x1="312.043" y1="252.709" x2="73.2329" y2="117.573" gradientUnits="userSpaceOnUse">
<stop stop-color="#E9ECEE"/>
<stop offset="1" stop-color="#F7F8F9" stop-opacity="0"/>
</linearGradient>
<linearGradient id="paint5_linear" x1="1008.5" y1="637.5" x2="1116.5" y2="846.5" gradientUnits="userSpaceOnUse">
<stop stop-color="#E9ECEE"/>
<stop offset="1" stop-color="#F7F8F9" stop-opacity="0"/>
</linearGradient>
<linearGradient id="paint6_linear" x1="1016.26" y1="692.751" x2="1090.29" y2="836.017" gradientUnits="userSpaceOnUse">
<stop stop-color="#E9ECEE"/>
<stop offset="1" stop-color="#F7F8F9" stop-opacity="0"/>
</linearGradient>
<linearGradient id="paint7_linear" x1="509.844" y1="649.5" x2="401.844" y2="858.5" gradientUnits="userSpaceOnUse">
<stop stop-color="#E9ECEE"/>
<stop offset="1" stop-color="#F7F8F9" stop-opacity="0"/>
</linearGradient>
<linearGradient id="paint8_linear" x1="502.901" y1="698.934" x2="425.292" y2="849.121" gradientUnits="userSpaceOnUse">
<stop stop-color="#E9ECEE"/>
<stop offset="1" stop-color="#F7F8F9" stop-opacity="0"/>
</linearGradient>
<linearGradient id="paint9_linear" x1="756.499" y1="217.662" x2="754.565" y2="617.834" gradientUnits="userSpaceOnUse">
<stop stop-color="#8000FF"/>
<stop offset="0.413944" stop-color="#7F52FF"/>
<stop offset="1" stop-color="#00D1FF"/>
</linearGradient>
<linearGradient id="paint10_linear" x1="764" y1="540" x2="700" y2="370" gradientUnits="userSpaceOnUse">
<stop stop-color="#DC9F03"/>
<stop offset="1" stop-color="#FABA00"/>
</linearGradient>
<linearGradient id="paint11_linear" x1="693.443" y1="287.792" x2="613.129" y2="143.663" gradientUnits="userSpaceOnUse">
<stop stop-color="white"/>
<stop offset="1" stop-color="#EDEFF2"/>
</linearGradient>
<linearGradient id="paint12_linear" x1="943.314" y1="287.792" x2="863" y2="143.663" gradientUnits="userSpaceOnUse">
<stop stop-color="white"/>
<stop offset="1" stop-color="#EDEFF2"/>
</linearGradient>
<linearGradient id="paint13_linear" x1="1026.58" y1="516.38" x2="946.266" y2="372.251" gradientUnits="userSpaceOnUse">
<stop stop-color="white"/>
<stop offset="1" stop-color="#EDEFF2"/>
</linearGradient>
<linearGradient id="paint14_linear" x1="977.775" y1="477.291" x2="959.38" y2="506.365" gradientUnits="userSpaceOnUse">
<stop stop-color="#FEA30D"/>
<stop offset="0.137983" stop-color="#FFBC57"/>
<stop offset="0.854529" stop-color="#FD6C1A"/>
<stop offset="1" stop-color="#FD6A1A"/>
</linearGradient>
<linearGradient id="paint15_linear" x1="967.886" y1="474.86" x2="954.73" y2="493.511" gradientUnits="userSpaceOnUse">
<stop offset="0.0662217" stop-color="#FD6B1A"/>
<stop offset="1" stop-color="#FEA40D"/>
</linearGradient>
<linearGradient id="paint16_linear" x1="987.236" y1="456.776" x2="951.106" y2="496.77" gradientUnits="userSpaceOnUse">
<stop stop-color="#FBC56C"/>
<stop offset="1" stop-color="#FD8514"/>
</linearGradient>
<linearGradient id="paint17_linear" x1="973.041" y1="491.829" x2="963.804" y2="483.513" gradientUnits="userSpaceOnUse">
<stop stop-color="#FD8215"/>
<stop offset="0.528057" stop-color="#DAA60C" stop-opacity="0"/>
</linearGradient>
<linearGradient id="paint18_linear" x1="961.986" y1="505.051" x2="956.975" y2="502.421" gradientUnits="userSpaceOnUse">
<stop offset="0.159539" stop-color="#ADC1D7"/>
<stop offset="0.581247" stop-color="#E0E7EF"/>
<stop offset="1" stop-color="#FDFDFE"/>
</linearGradient>
<linearGradient id="paint19_linear" x1="959.762" y1="500.126" x2="952.874" y2="514.721" gradientUnits="userSpaceOnUse">
<stop offset="0.056488" stop-color="#FBB251"/>
<stop offset="0.454877" stop-color="#E0E7EF" stop-opacity="0"/>
<stop offset="1" stop-color="#FDFDFE" stop-opacity="0"/>
</linearGradient>
<linearGradient id="paint20_linear" x1="958.059" y1="517.757" x2="950.233" y2="513.987" gradientUnits="userSpaceOnUse">
<stop stop-color="#CED8E4"/>
<stop offset="0.491169" stop-color="#DFE6EE"/>
<stop offset="0.911857" stop-color="#F8F8FE"/>
</linearGradient>
<linearGradient id="paint21_linear" x1="961.752" y1="497.279" x2="950.233" y2="513.987" gradientUnits="userSpaceOnUse">
<stop stop-color="#FFD535"/>
<stop offset="0.877225" stop-color="#DFE6EE" stop-opacity="0"/>
<stop offset="1" stop-color="#FDFDFE" stop-opacity="0"/>
</linearGradient>
<linearGradient id="paint22_linear" x1="947.963" y1="530.196" x2="941.624" y2="530.512" gradientUnits="userSpaceOnUse">
<stop stop-color="#BEC9D6"/>
<stop offset="1" stop-color="#EBEEF1"/>
</linearGradient>
<linearGradient id="paint23_linear" x1="978.111" y1="468.401" x2="952.929" y2="498.025" gradientUnits="userSpaceOnUse">
<stop stop-color="#FFFBDF"/>
<stop offset="1" stop-color="#FFEB28" stop-opacity="0"/>
</linearGradient>
<linearGradient id="paint24_linear" x1="820.736" y1="674.389" x2="740.422" y2="530.26" gradientUnits="userSpaceOnUse">
<stop stop-color="white"/>
<stop offset="1" stop-color="#EDEFF2"/>
</linearGradient>
<linearGradient id="paint25_linear" x1="608.579" y1="516.45" x2="528.266" y2="372.321" gradientUnits="userSpaceOnUse">
<stop stop-color="white"/>
<stop offset="1" stop-color="#EDEFF2"/>
</linearGradient>
<linearGradient id="paint26_linear" x1="654.864" y1="283.697" x2="600.785" y2="283.436" gradientUnits="userSpaceOnUse">
<stop stop-color="#CED8E4"/>
<stop offset="0.665987" stop-color="white"/>
<stop offset="0.800848" stop-color="white"/>
<stop offset="1" stop-color="#BDCDDE"/>
</linearGradient>
<radialGradient id="paint27_radial" cx="0" cy="0" r="1" gradientUnits="userSpaceOnUse" gradientTransform="translate(623.421 276.575) rotate(-176.607) scale(32.9897 34.3379)">
<stop stop-color="#44D049" stop-opacity="0.21"/>
<stop offset="0.968694" stop-color="#44D049" stop-opacity="0"/>
</radialGradient>
<linearGradient id="paint28_linear" x1="694.374" y1="240.123" x2="614.597" y2="256.159" gradientUnits="userSpaceOnUse">
<stop stop-color="#C4D2E1"/>
<stop offset="1" stop-color="#FCFDFE"/>
</linearGradient>
<linearGradient id="paint29_linear" x1="654.864" y1="283.697" x2="600.785" y2="283.436" gradientUnits="userSpaceOnUse">
<stop stop-color="#CED8E4"/>
<stop offset="0.665987" stop-color="#FDFDFE"/>
<stop offset="0.800848" stop-color="#FDFDFE"/>
<stop offset="1" stop-color="#BDCDDE"/>
</linearGradient>
<linearGradient id="paint30_linear" x1="660.338" y1="273.841" x2="606.774" y2="275.039" gradientUnits="userSpaceOnUse">
<stop stop-color="#6AEB6E"/>
<stop offset="0.0805294" stop-color="#10D414"/>
<stop offset="0.791522" stop-color="#78EF7A"/>
<stop offset="0.907232" stop-color="#77EF7A"/>
<stop offset="1" stop-color="#3AC43F"/>
</linearGradient>
<linearGradient id="paint31_linear" x1="660.799" y1="272.931" x2="607.833" y2="275.025" gradientUnits="userSpaceOnUse">
<stop stop-color="white"/>
<stop offset="0.193368" stop-color="#10D414"/>
<stop offset="0.791522" stop-color="#A4F4A6"/>
<stop offset="0.907232" stop-color="#A9F4AB"/>
<stop offset="1" stop-color="#3AC43F"/>
</linearGradient>
<linearGradient id="paint32_linear" x1="609.49" y1="276.318" x2="657.97" y2="273.997" gradientUnits="userSpaceOnUse">
<stop stop-color="#3ACC3F"/>
<stop offset="0.123246" stop-color="#3ACC3F" stop-opacity="0"/>
<stop offset="0.912857" stop-color="#3ACC3F" stop-opacity="0.118365"/>
<stop offset="1" stop-color="#3ACC3F"/>
</linearGradient>
<linearGradient id="paint33_linear" x1="658.222" y1="273.492" x2="608.333" y2="274.43" gradientUnits="userSpaceOnUse">
<stop stop-color="#6AEB6E"/>
<stop offset="0.110357" stop-color="#10D414"/>
<stop offset="0.791522" stop-color="#78EF7A"/>
<stop offset="0.907232" stop-color="#77EF7A"/>
<stop offset="1" stop-color="#3AC43F"/>
</linearGradient>
<linearGradient id="paint34_linear" x1="648.559" y1="250.293" x2="617.421" y2="248.702" gradientUnits="userSpaceOnUse">
<stop stop-color="#FBFCFE"/>
<stop offset="1" stop-color="#CAD6E3"/>
</linearGradient>
<linearGradient id="paint35_linear" x1="648.559" y1="250.293" x2="617.421" y2="248.702" gradientUnits="userSpaceOnUse">
<stop stop-color="#FBFCFE"/>
<stop offset="1" stop-color="#CAD6E3"/>
</linearGradient>
<linearGradient id="paint36_linear" x1="848.894" y1="273.631" x2="908.878" y2="270.942" gradientUnits="userSpaceOnUse">
<stop stop-color="#FDFDFE"/>
<stop offset="0.390246" stop-color="#F0F3F7"/>
<stop offset="0.555705" stop-color="#DEE5EC"/>
<stop offset="1" stop-color="#D3DBE3"/>
</linearGradient>
<linearGradient id="paint37_linear" x1="848.894" y1="273.631" x2="908.878" y2="270.942" gradientUnits="userSpaceOnUse">
<stop stop-color="#FDFDFE"/>
<stop offset="0.390246" stop-color="#F0F3F7"/>
<stop offset="0.555705" stop-color="#DEE5EC"/>
<stop offset="1" stop-color="#D3DBE3"/>
</linearGradient>
<linearGradient id="paint38_linear" x1="851.144" y1="273.551" x2="914.456" y2="275.03" gradientUnits="userSpaceOnUse">
<stop stop-color="#BF4BE2"/>
<stop offset="0.110593" stop-color="#EB8BFF"/>
<stop offset="0.152394" stop-color="#E989FE"/>
<stop offset="0.193774" stop-color="#E888FD"/>
<stop offset="0.258058" stop-color="#D361F0"/>
<stop offset="0.44857" stop-color="#D666F1"/>
<stop offset="0.539289" stop-color="#AB5CC1"/>
<stop offset="0.807053" stop-color="#BE4AE2"/>
<stop offset="1" stop-color="#E798FA"/>
</linearGradient>
<linearGradient id="paint39_linear" x1="855.103" y1="280.285" x2="912.733" y2="278.414" gradientUnits="userSpaceOnUse">
<stop stop-color="#FDFDFE"/>
<stop offset="0.400649" stop-color="#F0F3F7"/>
<stop offset="0.526485" stop-color="#DFE5ED"/>
<stop offset="1" stop-color="#DAE2EB"/>
</linearGradient>
<linearGradient id="paint40_linear" x1="855.103" y1="280.285" x2="912.733" y2="278.414" gradientUnits="userSpaceOnUse">
<stop stop-color="#FDFDFE"/>
<stop offset="0.400649" stop-color="#F0F3F7"/>
<stop offset="0.526485" stop-color="#DFE5ED"/>
<stop offset="1" stop-color="#DAE2EB"/>
</linearGradient>
<linearGradient id="paint41_linear" x1="851.144" y1="273.551" x2="914.456" y2="275.03" gradientUnits="userSpaceOnUse">
<stop stop-color="#BF4BE2"/>
<stop offset="0.127491" stop-color="#EB8BFF"/>
<stop offset="0.258058" stop-color="#D361F0"/>
<stop offset="0.44857" stop-color="#D666F1"/>
<stop offset="0.539289" stop-color="#AB5CC1"/>
<stop offset="0.807053" stop-color="#BE4AE2"/>
<stop offset="1" stop-color="#E798FA"/>
</linearGradient>
<linearGradient id="paint42_linear" x1="910.123" y1="277.758" x2="854.476" y2="278.405" gradientUnits="userSpaceOnUse">
<stop stop-color="#BA46DF"/>
<stop offset="0.160041" stop-color="#BA46DF" stop-opacity="0"/>
<stop offset="0.853021" stop-color="#BA46DF" stop-opacity="0"/>
<stop offset="1" stop-color="#BA46DF"/>
</linearGradient>
<linearGradient id="paint43_linear" x1="937.24" y1="226.545" x2="848.502" y2="250.85" gradientUnits="userSpaceOnUse">
<stop stop-color="#DAE2EB"/>
<stop offset="0.998094" stop-color="white"/>
</linearGradient>
<linearGradient id="paint44_linear" x1="847.255" y1="250.727" x2="899.293" y2="242.927" gradientUnits="userSpaceOnUse">
<stop stop-color="#DAE2EB"/>
<stop offset="0.998094" stop-color="white"/>
</linearGradient>
<linearGradient id="paint45_linear" x1="540.906" y1="464.818" x2="571.294" y2="480.863" gradientUnits="userSpaceOnUse">
<stop stop-color="#FBFBFD"/>
<stop offset="0.870249" stop-color="#EBEFF4"/>
<stop offset="0.994115" stop-color="#E8ECF2"/>
</linearGradient>
<linearGradient id="paint46_linear" x1="556.165" y1="447.676" x2="561.765" y2="540.977" gradientUnits="userSpaceOnUse">
<stop offset="0.437974" stop-color="#FDFDFE"/>
<stop offset="1" stop-color="#E5EBF2"/>
</linearGradient>
<linearGradient id="paint47_linear" x1="556.165" y1="447.676" x2="561.766" y2="540.977" gradientUnits="userSpaceOnUse">
<stop offset="0.437974" stop-color="#FDFDFE"/>
<stop offset="1" stop-color="#E5EBF2"/>
</linearGradient>
<linearGradient id="paint48_linear" x1="530.081" y1="469.756" x2="560.007" y2="486.876" gradientUnits="userSpaceOnUse">
<stop stop-color="#FE758A"/>
<stop offset="0.870249" stop-color="#FB5A72"/>
<stop offset="0.994115" stop-color="#FB4059"/>
</linearGradient>
<linearGradient id="paint49_linear" x1="558.079" y1="482.014" x2="560.183" y2="483.325" gradientUnits="userSpaceOnUse">
<stop stop-color="#FF4E65"/>
<stop offset="1" stop-color="#FB4059"/>
</linearGradient>
<linearGradient id="paint50_linear" x1="544.88" y1="527.438" x2="535.979" y2="481.322" gradientUnits="userSpaceOnUse">
<stop stop-color="#FB364F"/>
<stop offset="1" stop-color="#FB5770"/>
</linearGradient>
<linearGradient id="paint51_linear" x1="556.499" y1="486.013" x2="532.342" y2="473.619" gradientUnits="userSpaceOnUse">
<stop stop-color="#FB4059"/>
<stop offset="1" stop-color="#FF4D65"/>
</linearGradient>
<linearGradient id="paint52_linear" x1="536.311" y1="475.825" x2="536.729" y2="483.769" gradientUnits="userSpaceOnUse">
<stop stop-color="#FF4D65"/>
<stop offset="1" stop-color="#FF4D65" stop-opacity="0"/>
</linearGradient>
<linearGradient id="paint53_linear" x1="519.011" y1="475.371" x2="549.4" y2="491.415" gradientUnits="userSpaceOnUse">
<stop stop-color="#FBFBFD"/>
<stop offset="0.870249" stop-color="#EBEFF4"/>
<stop offset="0.994115" stop-color="#E8ECF2"/>
</linearGradient>
<linearGradient id="paint54_linear" x1="534.27" y1="458.228" x2="539.871" y2="551.529" gradientUnits="userSpaceOnUse">
<stop offset="0.437974" stop-color="#FDFDFE"/>
<stop offset="1" stop-color="#E5EBF2"/>
</linearGradient>
<linearGradient id="paint55_linear" x1="601.994" y1="491.848" x2="523.025" y2="529.918" gradientUnits="userSpaceOnUse">
<stop stop-color="#DAE2EB"/>
<stop offset="0.998094" stop-color="white"/>
</linearGradient>
<linearGradient id="paint56_linear" x1="535.382" y1="516.305" x2="583.132" y2="516.305" gradientUnits="userSpaceOnUse">
<stop stop-color="#FB5770"/>
<stop offset="0.160911" stop-color="#FB364F"/>
<stop offset="0.770399" stop-color="#FB364F"/>
<stop offset="0.842505" stop-color="#FB2B44"/>
</linearGradient>
<linearGradient id="paint57_linear" x1="508.641" y1="516.305" x2="579.094" y2="512.437" gradientUnits="userSpaceOnUse">
<stop stop-color="#FDFDFE"/>
<stop offset="0.400649" stop-color="#F0F3F7"/>
<stop offset="0.526485" stop-color="#DFE5ED"/>
<stop offset="1" stop-color="#DAE2EB"/>
</linearGradient>
<linearGradient id="paint58_linear" x1="782.744" y1="640.476" x2="783.127" y2="646.868" gradientUnits="userSpaceOnUse">
<stop stop-color="#EBEFF4"/>
<stop offset="1" stop-color="#D2DDE8"/>
</linearGradient>
<linearGradient id="paint59_linear" x1="764.413" y1="720.445" x2="756.958" y2="595.124" gradientUnits="userSpaceOnUse">
<stop offset="0.437974" stop-color="#FDFDFE"/>
<stop offset="1" stop-color="#E5EBF2"/>
</linearGradient>
<linearGradient id="paint60_linear" x1="769.872" y1="626.557" x2="778.837" y2="670.367" gradientUnits="userSpaceOnUse">
<stop offset="0.306231" stop-color="#13C2FB"/>
<stop offset="1" stop-color="#1599F7"/>
</linearGradient>
<linearGradient id="paint61_linear" x1="756.332" y1="625.069" x2="775.973" y2="663.532" gradientUnits="userSpaceOnUse">
<stop stop-color="#13C2FB"/>
<stop offset="0.287449" stop-color="#11BDFA"/>
<stop offset="0.561939" stop-color="#10B9FA"/>
<stop offset="1" stop-color="#1599F7"/>
</linearGradient>
<linearGradient id="paint62_linear" x1="756.332" y1="625.07" x2="775.973" y2="663.533" gradientUnits="userSpaceOnUse">
<stop stop-color="#13C2FB"/>
<stop offset="0.287449" stop-color="#11BDFA"/>
<stop offset="0.561939" stop-color="#10B9FA"/>
<stop offset="1" stop-color="#1599F7"/>
</linearGradient>
<linearGradient id="paint63_linear" x1="746.61" y1="628.615" x2="746.61" y2="635.731" gradientUnits="userSpaceOnUse">
<stop stop-color="#4ACEFF"/>
<stop offset="1" stop-color="#4ACEFF" stop-opacity="0"/>
</linearGradient>
<linearGradient id="paint64_linear" x1="779.664" y1="685.058" x2="746.525" y2="628.171" gradientUnits="userSpaceOnUse">
<stop stop-color="#128AF6"/>
<stop offset="1" stop-color="#2AB6F4"/>
</linearGradient>
<linearGradient id="paint65_linear" x1="769.872" y1="626.558" x2="778.837" y2="670.368" gradientUnits="userSpaceOnUse">
<stop offset="0.306231" stop-color="#13C2FB"/>
<stop offset="1" stop-color="#1599F7"/>
</linearGradient>
<linearGradient id="paint66_linear" x1="771.104" y1="646.237" x2="771.789" y2="649.995" gradientUnits="userSpaceOnUse">
<stop stop-color="#E7EEF4"/>
<stop offset="1" stop-color="#CAD4DF"/>
</linearGradient>
<linearGradient id="paint67_linear" x1="752.768" y1="726.207" x2="728.448" y2="604.451" gradientUnits="userSpaceOnUse">
<stop offset="0.295365" stop-color="#FDFDFE"/>
<stop offset="1" stop-color="#E5EBF2"/>
</linearGradient>
<linearGradient id="paint68_linear" x1="773.02" y1="654.703" x2="779.687" y2="652.748" gradientUnits="userSpaceOnUse">
<stop stop-color="#1596F7"/>
<stop offset="1" stop-color="#13C2FB"/>
</linearGradient>
<linearGradient id="paint69_linear" x1="773.735" y1="657.483" x2="779.687" y2="655.684" gradientUnits="userSpaceOnUse">
<stop stop-color="#1596F7"/>
<stop offset="1" stop-color="#13C2FB"/>
</linearGradient>
<linearGradient id="paint70_linear" x1="773.735" y1="660.398" x2="779.687" y2="658.619" gradientUnits="userSpaceOnUse">
<stop stop-color="#1090F6"/>
<stop offset="1" stop-color="#13C2FB"/>
</linearGradient>
<linearGradient id="paint71_linear" x1="773.02" y1="663.51" x2="782.296" y2="661.484" gradientUnits="userSpaceOnUse">
<stop stop-color="#108FF6"/>
<stop offset="1" stop-color="#13C2FB"/>
</linearGradient>
<linearGradient id="paint72_linear" x1="772.938" y1="667.23" x2="782.951" y2="664.028" gradientUnits="userSpaceOnUse">
<stop stop-color="#1089F5"/>
<stop offset="1" stop-color="#13C2FB"/>
</linearGradient>
<linearGradient id="paint73_linear" x1="775.352" y1="668.261" x2="780.476" y2="666.096" gradientUnits="userSpaceOnUse">
<stop stop-color="#1089F5"/>
<stop offset="1" stop-color="#13C2FB"/>
</linearGradient>
<linearGradient id="paint74_linear" x1="733.764" y1="656.978" x2="783.905" y2="658.709" gradientUnits="userSpaceOnUse">
<stop stop-color="#D8DFE8"/>
<stop offset="1" stop-color="#FDFDFE"/>
</linearGradient>
<linearGradient id="paint75_linear" x1="776.011" y1="658.416" x2="737.862" y2="659.043" gradientUnits="userSpaceOnUse">
<stop stop-color="#F2F5F8"/>
<stop offset="0.907209" stop-color="#FDFDFE"/>
</linearGradient>
<linearGradient id="paint76_linear" x1="751.139" y1="667.313" x2="759.945" y2="684.83" gradientUnits="userSpaceOnUse">
<stop stop-color="#E0E7EF"/>
<stop offset="1" stop-color="#EEF1F5"/>
</linearGradient>
<linearGradient id="paint77_linear" x1="749.663" y1="666.362" x2="761.325" y2="689.351" gradientUnits="userSpaceOnUse">
<stop stop-color="#EBEFF4"/>
<stop offset="1" stop-color="#FDFDFE"/>
</linearGradient>
<clipPath id="clip0">
<rect width="1255" height="1000" fill="white"/>
</clipPath>
</defs>
</svg>
